<svg xmlns="http://www.w3.org/2000/svg" id="Layer_1" data-name="Layer 1" viewBox="0 0 141.73 79.37"><defs><style>.cls-1{fill:#fff;}</style></defs><path class="cls-1" d="M111.64,26.42a27.07,27.07,0,0,0,10.93-5c-.09,1.79-.09,3.76-.09,5.91V44h16.75V2.32a40,40,0,0,0-8.42-.81,39,39,0,0,0-8.42.81A25.64,25.64,0,0,1,107.07,13.6c-.45,5.29,1.43,10.22,4.57,12.82"></path><path class="cls-1" d="M80.82,9.5c6.5,0,9.39,3.09,9.39,8s-2.82,8-9.39,8a14.7,14.7,0,0,1-4.06-.51,7.46,7.46,0,0,1-3.89,2.48,10.61,10.61,0,0,0,2.24-3.12c-2.54-1.31-3.69-3.69-3.69-6.81,0-4.88,2.82-7.95,9.4-7.95M67.6,32.42c-4.19,2.43-8.31,6.12-9.66,11.58H73.71a13,13,0,0,1,4.73-5.58C82,40.14,85.22,41.78,86.77,44H104c-.93-6.75-5-10.93-9.93-14,3.94-2.87,7.44-7.26,7.44-13.8C101.47,6.44,93.58.61,80.59.61,67.06.61,59.18,7.33,59.18,17.19c0,7.25,3.67,11.82,8.42,15.23"></path><path class="cls-1" d="M19.72,44A73.88,73.88,0,0,1,19,32.6c0-16,2.33-19.09,7.26-19.09s7.26,3.14,7.26,19.09A74.2,74.2,0,0,1,32.89,44H50.46a63.93,63.93,0,0,0,.92-11.4c0-22.58-8.69-32-25.08-32s-25,9.68-25,32A63.93,63.93,0,0,0,2.22,44Z"></path><path class="cls-1" d="M11.87,50a23.45,23.45,0,0,1,7.82,1.17A5.94,5.94,0,0,1,18.36,55a20,20,0,0,0-5.79-.85C8.8,54.18,7,55.42,7,58s3.38,3.11,6.77,4.32,7,3.15,7,8.13c0,5.4-3.39,8.36-10,8.36A20.51,20.51,0,0,1,2.07,77a7.21,7.21,0,0,1,1.17-4,27.65,27.65,0,0,0,7.31,1.2c3.61,0,5.13-1.28,5.13-3.77,0-2.1-1.75-3.07-4-3.89-4-1.43-9.57-2.37-9.57-8.44,0-4.9,3.19-8.2,9.8-8.2"></path><path class="cls-1" d="M43.35,50.37a6,6,0,0,1,.39,2.1,6.26,6.26,0,0,1-.39,2.18H36.47V78a7.49,7.49,0,0,1-2.49.35A6.18,6.18,0,0,1,31.49,78V54.65H24.41a5.3,5.3,0,0,1-.39-2.1,6.2,6.2,0,0,1,.39-2.18Z"></path><path class="cls-1" d="M69.24,68.57c0,6.53-4,10.19-10.15,10.19S49,75,49,68.57V50.72a6.81,6.81,0,0,1,2.45-.35,7.33,7.33,0,0,1,2.53.35V69.35c0,3.26,1.86,5.21,5.21,5.21s5.17-2,5.17-5.21V50.72a6.43,6.43,0,0,1,2.41-.35,7.2,7.2,0,0,1,2.49.35Z"></path><path class="cls-1" d="M85.35,74.24c3.77,0,6.54-1.67,6.54-9.87s-2.77-9.88-6.54-9.88H81.54V74.24Zm.35-23.87c7.08,0,11.51,3.92,11.51,14s-4.43,14-11.51,14H76.57v-28Z"></path><path class="cls-1" d="M105.09,50.72a6.81,6.81,0,0,1,2.45-.35,7.26,7.26,0,0,1,2.53.35V78a7.42,7.42,0,0,1-2.49.35,6.18,6.18,0,0,1-2.49-.35Z"></path><path class="cls-1" d="M129.19,54.1c-3.58,0-6,2-6,10.27s2.41,10.26,6,10.26,6-2.06,6-10.26-2.34-10.27-6-10.27m0-4.12c6.84,0,11.24,4.31,11.24,14.39s-4.28,14.39-11.24,14.39S118,74.44,118,64.37,122.34,50,129.19,50"></path></svg>